HIERARCHY
ROOT Hips
{
 OFFSET 0.000000 0.000000 0.000000
 CHANNELS 6 Xposition Yposition Zposition Yrotation Xrotation Zrotation
 JOINT Chest
 {
  OFFSET 0.000000 9.585900 0.002600
  CHANNELS 3 Yrotation Xrotation Zrotation
  JOINT Chest2
  {
   OFFSET 0.000000 9.601200 -0.005300
   CHANNELS 3 Yrotation Xrotation Zrotation
   JOINT Chest3
   {
    OFFSET 0.000000 9.561800 0.000000
    CHANNELS 3 Yrotation Xrotation Zrotation
    JOINT Chest4
    {
     OFFSET 0.000000 9.552100 0.000000
     CHANNELS 3 Yrotation Xrotation Zrotation
     JOINT Neck
     {
      OFFSET 0.000000 14.453000 0.000000
      CHANNELS 3 Yrotation Xrotation Zrotation
      JOINT Head
      {
       OFFSET 0.000000 8.936500 -0.011300
       CHANNELS 3 Yrotation Xrotation Zrotation
       End Site
       {
        OFFSET 0.000000 17.073600 -0.006000
       }
      }
     }
     JOINT RightCollar
     {
      OFFSET -2.921100 9.558500 0.000000
      CHANNELS 3 Yrotation Xrotation Zrotation
      JOINT RightShoulder
      {
       OFFSET -13.519700 0.000000 0.000000
       CHANNELS 3 Yrotation Xrotation Zrotation
       JOINT RightElbow
       {
        OFFSET 0.000000 -29.696600 0.000000
        CHANNELS 3 Yrotation Xrotation Zrotation
        JOINT RightWrist
        {
         OFFSET 0.000000 -24.004700 0.000000
         CHANNELS 3 Yrotation Xrotation Zrotation
         End Site
         {
          OFFSET 0.000000 -17.728500 0.000000
         }
        }
       }
      }
     }
     JOINT LeftCollar
     {
      OFFSET 2.921100 9.558500 0.000000
      CHANNELS 3 Yrotation Xrotation Zrotation
      JOINT LeftShoulder
      {
       OFFSET 13.519700 0.000000 0.000000
       CHANNELS 3 Yrotation Xrotation Zrotation
       JOINT LeftElbow
       {
        OFFSET 0.000000 -29.696600 0.000000
        CHANNELS 3 Yrotation Xrotation Zrotation
        JOINT LeftWrist
        {
         OFFSET 0.000000 -24.004700 0.000000
         CHANNELS 3 Yrotation Xrotation Zrotation
         End Site
         {
          OFFSET 0.000000 -17.728500 0.000000
         }
        }
       }
      }
     }
    }
   }
  }
 }
 JOINT RightHip
 {
  OFFSET -7.771700 -0.012900 -0.001300
  CHANNELS 3 Yrotation Xrotation Zrotation
  JOINT RightKnee
  {
   OFFSET 0.000000 -40.869800 0.001200
   CHANNELS 3 Yrotation Xrotation Zrotation
   JOINT RightAnkle
   {
    OFFSET 0.000000 -39.717900 0.002100
    CHANNELS 3 Yrotation Xrotation Zrotation
    JOINT RightToe
    {
     OFFSET 0.000000 -4.965400 11.033500
     CHANNELS 3 Yrotation Xrotation Zrotation
     End Site
     {
      OFFSET 0.000000 -1.423100 5.872300
     }
    }
   }
  }
 }
 JOINT LeftHip
 {
  OFFSET 7.771700 -0.012900 -0.001300
  CHANNELS 3 Yrotation Xrotation Zrotation
  JOINT LeftKnee
  {
   OFFSET 0.000000 -40.869800 0.001200
   CHANNELS 3 Yrotation Xrotation Zrotation
   JOINT LeftAnkle
   {
    OFFSET 0.000000 -39.717900 0.002100
    CHANNELS 3 Yrotation Xrotation Zrotation
    JOINT LeftToe
    {
     OFFSET 0.000000 -4.965400 11.033500
     CHANNELS 3 Yrotation Xrotation Zrotation
     End Site
     {
      OFFSET 0.000000 -1.423100 5.872300
     }
    }
   }
  }
 }
}
MOTION
Frames: 13
Frame Time: 0.008333
-56.549087 48.810023 17.129544 175.371314 -31.631138 0.460345 -0.105340 11.478118 3.761494 -0.344679 6.604942 2.282807 -0.380522 8.239807 2.888563 -0.320417 6.555522 2.355596 1.365838 27.349732 -5.664826 3.643701 15.202586 -10.293981 7.422569 5.134106 -4.281412 3.250993 -24.389073 -12.425921 30.604946 -49.562517 -16.663584 8.795665 4.121502 -37.423994 -4.339825 -1.710943 -1.300690 3.078783 -40.790277 -9.226638 115.375291 -57.634666 -154.198165 3.510947 3.918093 37.029816 25.233983 -51.168309 -23.821320 -126.951017 77.210746 -116.195937 1.787876 -18.155511 2.086832 0.098395 -0.543659 0.001388 -7.380082 -52.445439 11.781241 94.925014 81.481787 92.265174 -5.559857 -8.129177 -2.984225 0.152733 0.474104 0.066484
-56.558871 48.812148 17.128103 175.370382 -31.627747 0.431119 -0.102532 11.490157 3.761934 -0.350375 6.631485 2.244869 -0.367204 8.228425 2.915202 -0.346265 6.613276 2.286182 1.342124 27.282867 -5.557481 3.553919 15.102234 -10.136582 7.422634 5.128519 -4.271926 3.256533 -24.448986 -12.384225 30.648193 -49.523472 -16.740485 8.774480 4.073408 -37.406964 -4.361118 -1.715210 -1.310721 3.029430 -40.812407 -9.151717 116.461008 -57.887457 -155.028265 3.444571 3.988762 37.108392 25.193196 -51.171415 -23.797654 -126.917443 77.224779 -116.153541 1.776298 -18.152830 2.111698 0.107544 -0.541256 -0.010951 -7.400716 -52.452567 11.804272 95.001945 81.474506 92.356758 -5.552775 -8.136492 -2.985469 0.155242 0.466224 0.066813
-56.570317 48.814142 17.126199 175.376323 -31.626776 0.408894 -0.107560 11.517799 3.723580 -0.352957 6.643949 2.236299 -0.353451 8.217211 2.940566 -0.374909 6.668832 2.218494 1.313915 27.216993 -5.451912 3.455192 15.001589 -9.981437 7.425574 5.125146 -4.259505 3.250815 -24.448844 -12.402172 30.645870 -49.586956 -16.760134 8.767121 4.042983 -37.395308 -4.370433 -1.732097 -1.298098 2.982167 -40.818759 -9.103872 117.610893 -58.140969 -155.899117 3.368741 4.068526 37.168679 25.156421 -51.169476 -23.785033 -126.916270 77.245668 -116.151377 1.762381 -18.152591 2.134572 0.110609 -0.539529 -0.020777 -7.417976 -52.458484 11.814236 95.067296 81.467110 92.432134 -5.551697 -8.136198 -2.986269 0.164840 0.456599 0.069115
-56.578787 48.814332 17.126780 175.377974 -31.609930 0.370751 -0.110422 11.529976 3.705056 -0.351085 6.656799 2.225108 -0.374869 8.273520 2.871958 -0.347660 6.642296 2.264254 1.260223 27.167641 -5.372805 3.347470 14.899843 -9.831221 7.419614 5.139512 -4.265962 3.241596 -24.449389 -12.415417 30.646156 -49.648926 -16.781473 8.756574 4.012485 -37.383888 -4.390132 -1.733930 -1.307295 2.935601 -40.827312 -9.057280 118.779298 -58.387026 -156.782949 3.285198 4.156719 37.212509 25.108912 -51.192686 -23.757337 -126.849706 77.246179 -116.080049 1.780125 -18.142234 2.145053 0.122447 -0.542456 -0.034412 -7.461619 -52.479077 11.864662 95.127210 81.460169 92.499749 -5.556472 -8.137284 -2.983799 0.171626 0.452765 0.068032
-56.584759 48.814431 17.127122 175.388133 -31.596072 0.314292 -0.111880 11.544296 3.699639 -0.356523 6.671213 2.215364 -0.382368 8.303407 2.842275 -0.338693 6.641460 2.274915 1.200621 27.117897 -5.298381 3.230007 14.797318 -9.688149 7.413316 5.152779 -4.276186 3.245587 -24.509007 -12.373105 30.666920 -49.629750 -16.828681 8.739872 3.971574 -37.371431 -4.407821 -1.736507 -1.317284 2.890590 -40.838323 -9.015143 119.908558 -58.613777 -157.640636 3.192503 4.249500 37.238132 25.019932 -51.214742 -23.706613 -126.809947 77.270853 -116.040651 1.818739 -18.137418 2.157330 0.091609 -0.541408 -0.051366 -7.533017 -52.495773 11.942538 95.222008 81.455701 92.601589 -5.563014 -8.148844 -2.980090 0.175844 0.455913 0.065183
-56.590513 48.815760 17.124953 175.370192 -31.599817 0.273378 -0.106218 11.609820 3.628474 -0.338110 6.654547 2.267563 -0.381645 8.319928 2.833127 -0.338076 6.654613 2.267569 1.135492 27.067667 -5.228548 3.103589 14.693871 -9.551963 7.404580 5.164606 -4.288480 3.249722 -24.570556 -12.329152 30.685061 -49.609807 -16.870265 8.711889 3.912685 -37.349115 -4.422875 -1.741199 -1.328067 2.850937 -40.850735 -8.979595 120.942874 -58.808044 -158.430821 3.093993 4.337393 37.243861 24.957870 -51.228267 -23.640412 -126.763895 77.275112 -115.991652 1.825056 -18.122281 2.166681 0.088209 -0.549450 -0.054457 -7.576594 -52.493086 12.011823 95.376958 81.457925 92.771539 -5.567256 -8.167577 -2.991020 0.175679 0.451556 0.072995
-56.594185 48.816102 17.124168 175.355022 -31.595365 0.218835 -0.094492 11.636255 3.628802 -0.336607 6.668162 2.260265 -0.363572 8.307728 2.862582 -0.337584 6.661369 2.263990 1.026238 27.051490 -5.203657 2.972292 14.589291 -9.420581 7.372118 5.216317 -4.331823 3.245241 -24.596680 -12.324478 30.678765 -49.645101 -16.886726 8.702053 3.887617 -37.354471 -4.430197 -1.744223 -1.333389 2.836741 -40.833257 -9.009324 121.841872 -58.965865 -159.125009 2.995874 4.411405 37.234831 24.880914 -51.252962 -23.563015 -126.664446 77.257258 -115.875964 1.855983 -18.109222 2.145031 0.096401 -0.555365 -0.039644 -7.639509 -52.496329 12.103453 95.496700 81.456219 92.903629 -5.568552 -8.186805 -2.996384 0.182488 0.455566 0.074155
-56.599385 48.816776 17.122512 175.345953 -31.596978 0.171590 -0.094736 11.668007 3.616512 -0.321044 6.661103 2.287647 -0.360261 8.316814 2.859027 -0.337348 6.668111 2.260400 0.912229 27.032769 -5.182613 2.839154 14.484760 -9.294400 7.341201 5.269819 -4.372572 3.216591 -24.578163 -12.374611 30.646260 -49.754722 -16.861971 8.701771 3.896744 -37.393892 -4.480377 -1.703689 -1.405823 2.820537 -40.868140 -8.956839 122.598872 -59.092948 -159.715801 2.902483 4.468182 37.217101 24.816762 -51.269178 -23.489263 -126.638609 77.264693 -115.851848 1.851423 -18.097737 2.152239 0.070440 -0.562441 -0.020743 -7.694520 -52.492679 12.178837 95.597579 81.452756 93.012898 -5.572443 -8.207142 -3.000073 0.191748 0.462875 0.075106
-56.606196 48.816160 17.122759 175.336701 -31.585764 0.134298 -0.088352 11.671606 3.626693 -0.340611 6.698419 2.231678 -0.348912 8.324697 2.864091 -0.368110 6.731041 2.193354 0.904699 26.930267 -5.059145 2.702952 14.379901 -9.175027 7.382133 5.231635 -4.328820 3.200104 -24.589566 -12.390033 30.629667 -49.815223 -16.865167 8.682564 3.864254 -37.400091 -4.471177 -1.734336 -1.377295 2.812766 -40.909414 -8.907853 123.248254 -59.195787 -160.224242 2.818449 4.509695 37.190118 24.769127 -51.292574 -23.439631 -126.559026 77.261884 -115.765308 1.842319 -18.085783 2.154674 0.104607 -0.563914 -0.022767 -7.741757 -52.500172 12.245733 95.642585 81.450062 93.059549 -5.583168 -8.221797 -3.002454 0.189260 0.469809 0.079965
-56.610676 48.815742 17.122893 175.316393 -31.578691 0.090522 -0.068371 11.679125 3.651073 -0.360946 6.735259 2.176631 -0.365115 8.372788 2.814039 -0.343376 6.721500 2.219152 0.852041 26.861630 -4.982952 2.563244 14.273229 -9.061488 7.399361 5.231885 -4.323585 3.187411 -24.613143 -12.383445 30.621986 -49.853332 -16.882999 8.660744 3.823790 -37.399214 -4.442186 -1.778602 -1.323886 2.828262 -40.906787 -8.948713 123.838735 -59.281876 -160.683288 2.740924 4.538530 37.143872 24.694105 -51.304157 -23.383286 -126.439453 77.269628 -115.624984 1.897156 -18.090974 2.136333 0.091517 -0.547184 -0.026349 -7.783860 -52.505824 12.321466 95.735095 81.447710 93.160808 -5.575284 -8.241343 -3.001551 0.179976 0.476287 0.078983
-56.614748 48.815516 17.122853 175.302194 -31.575754 0.043232 -0.066016 11.705679 3.642513 -0.344963 6.727865 2.203511 -0.392223 8.425125 2.751926 -0.306436 6.686591 2.269106 0.733823 26.843285 -4.970062 2.422654 14.163330 -8.951241 7.376310 5.289228 -4.367584 3.171534 -24.636877 -12.373069 30.615457 -49.894239 -16.899142 8.638193 3.765952 -37.379179 -4.490230 -1.730526 -1.397323 2.829963 -40.960109 -8.901040 124.422247 -59.362014 -161.135062 2.663002 4.554825 37.066502 24.628063 -51.320645 -23.314525 -126.376126 77.279010 -115.549946 1.903193 -18.081759 2.134613 0.091156 -0.546011 -0.024679 -7.813226 -52.517676 12.376407 95.860599 81.439406 93.310316 -5.552542 -8.244667 -2.999125 0.151814 0.467667 0.072207
-56.619461 48.815256 17.122951 175.286167 -31.574574 0.003191 -0.079844 11.751409 3.579826 -0.329309 6.735058 2.222888 -0.381081 8.435699 2.757608 -0.316508 6.720322 2.241294 0.680851 26.769555 -4.897160 2.283607 14.049883 -8.842656 7.395539 5.287478 -4.362662 3.150389 -24.660503 -12.357268 30.620566 -49.940935 -16.920739 8.622196 3.734882 -37.386086 -4.500607 -1.730321 -1.413252 2.830671 -41.017410 -8.848596 125.046590 -59.443362 -161.625012 2.579008 4.553651 36.957472 24.571416 -51.333037 -23.257975 -126.321336 77.291490 -115.482499 1.913281 -18.070644 2.131073 0.090044 -0.545517 -0.023255 -7.847405 -52.521039 12.439434 95.954979 81.442470 93.414521 -5.533959 -8.252700 -2.999072 0.158060 0.465344 0.072434
-56.624301 48.814930 17.123286 175.265513 -31.574947 -0.030760 -0.082889 11.784449 3.544597 -0.327678 6.755714 2.211463 -0.369075 8.446170 2.763073 -0.327671 6.755702 2.211405 0.630641 26.693197 -4.823934 2.147095 13.934579 -8.735848 7.415555 5.287011 -4.357782 3.127911 -24.681852 -12.337453 30.635158 -49.993076 -16.953835 8.602223 3.710334 -37.387932 -4.464968 -1.779048 -1.358561 2.832632 -41.038179 -8.835632 125.713857 -59.510289 -162.121225 2.480663 4.533589 36.819380 24.521860 -51.343137 -23.208726 -126.274760 77.306703 -115.422973 1.927308 -18.058617 2.129455 0.086246 -0.545081 -0.025599 -7.872710 -52.521948 12.498767 96.042807 81.447978 93.514530 -5.533194 -8.261508 -3.003338 0.157708 0.463361 0.075411
